<?xml version="1.0" encoding="utf-8"?>
<!-- Generator: Adobe Illustrator 23.0.1, SVG Export Plug-In . SVG Version: 6.00 Build 0)  -->
<svg version="1.1" xmlns="http://www.w3.org/2000/svg" xmlns:xlink="http://www.w3.org/1999/xlink" x="0px" y="0px"
	 viewBox="0 0 141.73 141.73" style="enable-background:new 0 0 141.73 141.73;" xml:space="preserve">
<style type="text/css">
	.st0{fill:none;stroke:#000000;stroke-width:0.5;stroke-miterlimit:10;}
	.st1{fill:url(#SVGID_1_);}
	.st2{opacity:0.96;}
	.st3{fill:none;stroke:url(#SVGID_2_);stroke-width:0.75;stroke-miterlimit:10;}
	.st4{fill:none;stroke:url(#SVGID_3_);stroke-width:0.75;stroke-miterlimit:10;}
	.st5{fill:none;stroke:url(#SVGID_4_);stroke-width:0.75;stroke-miterlimit:10;}
	.st6{fill:none;stroke:url(#SVGID_5_);stroke-width:0.75;stroke-miterlimit:10;}
	.st7{fill:none;stroke:url(#SVGID_6_);stroke-width:0.75;stroke-miterlimit:10;}
	.st8{fill:none;stroke:url(#SVGID_7_);stroke-width:0.75;stroke-miterlimit:10;}
	.st9{fill:none;stroke:url(#SVGID_8_);stroke-width:0.75;stroke-miterlimit:10;}
	.st10{fill:none;stroke:url(#SVGID_9_);stroke-width:0.75;stroke-miterlimit:10;}
	.st11{fill:url(#SVGID_10_);stroke:url(#SVGID_11_);stroke-width:0.75;stroke-miterlimit:10;}
	.st12{fill:none;stroke:url(#SVGID_12_);stroke-width:0.75;stroke-miterlimit:10;}
	.st13{fill:none;stroke:url(#SVGID_13_);stroke-width:0.75;stroke-miterlimit:10;}
	.st14{fill:none;stroke:url(#SVGID_14_);stroke-width:0.75;stroke-miterlimit:10;}
	.st15{fill:none;stroke:url(#SVGID_15_);stroke-width:0.75;stroke-miterlimit:10;}
	.st16{fill:none;stroke:url(#SVGID_16_);stroke-width:0.75;stroke-miterlimit:10;}
	.st17{fill:none;stroke:url(#SVGID_17_);stroke-width:0.75;stroke-miterlimit:10;}
	.st18{fill:none;stroke:url(#SVGID_18_);stroke-width:0.75;stroke-miterlimit:10;}
	.st19{fill:none;stroke:url(#SVGID_19_);stroke-width:0.75;stroke-miterlimit:10;}
	.st20{fill:none;stroke:url(#SVGID_20_);stroke-width:0.75;stroke-miterlimit:10;}
	.st21{fill:none;stroke:url(#SVGID_21_);stroke-width:0.75;stroke-miterlimit:10;}
	.st22{fill:none;stroke:url(#SVGID_22_);stroke-width:0.75;stroke-miterlimit:10;}
	.st23{fill:none;stroke:url(#SVGID_23_);stroke-width:0.75;stroke-miterlimit:10;}
	.st24{fill:none;stroke:url(#SVGID_24_);stroke-width:0.75;stroke-miterlimit:10;}
	.st25{fill:none;stroke:url(#SVGID_25_);stroke-width:0.75;stroke-miterlimit:10;}
	.st26{fill:none;stroke:url(#SVGID_26_);stroke-width:0.75;stroke-miterlimit:10;}
	.st27{fill:none;stroke:url(#SVGID_27_);stroke-width:0.75;stroke-miterlimit:10;}
	.st28{fill:none;stroke:url(#SVGID_28_);stroke-width:0.75;stroke-miterlimit:10;}
	.st29{fill:none;stroke:url(#SVGID_29_);stroke-width:0.75;stroke-miterlimit:10;}
	.st30{fill:none;stroke:url(#SVGID_30_);stroke-width:0.75;stroke-miterlimit:10;}
	.st31{fill:url(#SVGID_31_);stroke:url(#SVGID_32_);stroke-width:0.75;stroke-miterlimit:10;}
	.st32{fill:none;stroke:#000000;stroke-width:0.75;stroke-miterlimit:10;}
	.st33{fill:none;stroke:url(#SVGID_33_);stroke-width:0.75;stroke-miterlimit:10;}
	.st34{fill:none;stroke:url(#SVGID_34_);stroke-width:0.75;stroke-miterlimit:10;}
	.st35{fill:none;stroke:url(#SVGID_35_);stroke-width:0.75;stroke-miterlimit:10;}
	.st36{fill:none;stroke:url(#SVGID_36_);stroke-width:0.75;stroke-miterlimit:10;}
	.st37{fill:none;stroke:url(#SVGID_37_);stroke-width:0.75;stroke-miterlimit:10;}
	.st38{fill:url(#SVGID_38_);stroke:url(#SVGID_39_);stroke-width:0.75;stroke-miterlimit:10;}
</style>
<g id="Layer_2">
</g>
<g id="Layer_1">
	<g>
		<linearGradient id="SVGID_1_" gradientUnits="userSpaceOnUse" x1="43.7379" y1="68.711" x2="97.9921" y2="68.711">
			<stop  offset="0" style="stop-color:#FBAC32"/>
			<stop  offset="1" style="stop-color:#D97C34"/>
		</linearGradient>
		<path class="st1" d="M97.99,67.58c0-0.04-0.02-0.06-0.02-0.1c0-0.54-0.01-1.07-0.08-1.61c0-0.03,0-0.05,0-0.08
			c-0.16-0.23-0.21-0.52-0.17-0.8c-0.11-0.23-0.21-0.47-0.28-0.72c-0.36-1.39-0.55-2.83-0.69-4.27c-0.02-0.02-0.02-0.05-0.04-0.08
			c-0.1-0.12-0.16-0.27-0.18-0.45c-0.18-0.44-0.58-0.79-0.81-1.2c-0.13-0.24-0.14-0.47-0.09-0.68c-0.05-0.14-0.09-0.28-0.12-0.42
			c-0.46-0.58-0.83-1.17-1.04-1.89c-0.01-0.03,0-0.05-0.01-0.07c-0.25-0.28-0.48-0.58-0.66-0.91c-0.1-0.19-0.12-0.36-0.11-0.53
			c-0.36-0.38-0.67-0.81-0.88-1.28c-0.02-0.02-0.05-0.02-0.07-0.04c-0.43-0.39-0.71-0.91-1.15-1.3c-0.01-0.01-0.02-0.02-0.03-0.04
			c-0.49-0.53-1.02-1.03-1.5-1.57c-0.1-0.11-0.16-0.22-0.2-0.34c-0.17-0.09-0.33-0.18-0.51-0.25c-0.45-0.16-0.68-0.54-0.69-0.93
			c-0.18-0.03-0.35-0.09-0.51-0.25c-0.25-0.24-0.55-0.39-0.87-0.53c-0.23-0.1-0.36-0.31-0.43-0.54c-1.07-0.23-1.91-0.76-2.52-1.48
			c-0.42-0.04-0.7-0.29-0.82-0.61c-0.33-0.19-0.65-0.4-0.91-0.65c-1.2-0.1-2.16-0.55-2.86-1.23c-0.2,0.02-0.41,0.05-0.62,0.05
			c-0.99,0-1.82-0.24-2.51-0.65c-0.13,0.06-0.27,0.1-0.45,0.1c-0.32,0-0.57-0.13-0.73-0.32c-0.22,0.03-0.46,0.04-0.7,0.04
			c-0.79,0-1.49-0.15-2.08-0.42c-0.34,0.07-0.69,0.11-1.08,0.11c-0.48,0-0.91-0.06-1.32-0.16c-0.16,0.13-0.35,0.23-0.62,0.23h-0.82
			c-0.19,0-0.35-0.05-0.48-0.13c-0.5,0.17-1.04,0.27-1.66,0.27c-0.28,0-0.54-0.03-0.8-0.06c-0.75,0.54-1.7,0.88-2.87,0.88
			c-0.13,0-0.26-0.01-0.38-0.02c-0.63,0.59-1.46,1.01-2.48,1.16c-0.15,0.26-0.41,0.46-0.81,0.46c-0.03,0-0.04-0.01-0.07-0.01
			c-0.68,0.78-1.61,1.36-2.85,1.52c-0.44,0.34-0.95,0.61-1.54,0.77c-0.52,0.97-1.34,1.78-2.5,2.17c-0.4,0.6-0.94,1.11-1.62,1.46
			c-0.07,0.12-0.15,0.24-0.22,0.36c-0.26,0.38-0.54,0.73-0.8,1.1c-0.2,0.29-0.74,1.36-0.24,0.09c-0.31,0.78-0.76,1.46-1.29,2.04
			c-0.02,0.05-0.04,0.09-0.08,0.14c-0.63,0.94-1.17,1.92-1.67,2.92c-0.02,0.13-0.03,0.26-0.03,0.4c0,0.34-0.14,0.58-0.34,0.74
			c-0.02,0.19-0.04,0.37-0.04,0.56c-0.01,0.49-0.31,0.77-0.68,0.89c0.05,0.33-0.03,0.68-0.27,0.92c-0.01,0.02-0.01,0.04-0.02,0.06
			c0.04,0.34-0.08,0.69-0.36,0.91c-0.02,0.31-0.05,0.62-0.12,0.92c-0.03,0.13-0.08,0.25-0.13,0.38c-0.29,1.77-0.62,3.52-0.64,5.32
			c0,0.19-0.06,0.35-0.14,0.48c0.01,0.1,0.02,0.2,0.03,0.3c0.02,0.2,0,0.4,0.01,0.6c0.06,0.13,0.1,0.28,0.1,0.45
			c-0.04,1.7,0.35,3.36,0.46,5.04c0,0.01-0.01,0.02-0.01,0.04c0.15,0.42,0.26,0.85,0.3,1.29c0.04,0.08,0.07,0.18,0.11,0.26
			c0.24,0.16,0.42,0.41,0.44,0.78c0.04,1.08,0.66,2.09,1.16,3.01c0.08,0.15,0.12,0.3,0.12,0.45c0.18,0.27,0.35,0.56,0.46,0.88
			c0.66,0.63,1.1,1.43,1.33,2.31c0.73,0.55,1.23,1.3,1.54,2.13c0.25,0.09,0.42,0.28,0.52,0.5c0.15,0.11,0.27,0.25,0.34,0.42
			c0.98,0.46,1.72,1.21,2.15,2.13c0.95,0.34,1.68,0.95,2.19,1.71c0.87,0.3,1.56,0.83,2.07,1.5c0.83,0.19,1.51,0.58,2.05,1.09
			c1.1,0.21,2.18,0.67,3.18,1.22c0.11-0.04,0.22-0.07,0.35-0.07c0.32,0,0.57,0.13,0.73,0.32c0.23,0.05,0.46,0.12,0.69,0.19
			c0.42,0.04,0.79,0.14,1.15,0.26c0.09-0.03,0.18-0.06,0.29-0.06c0.26,0,0.45,0.1,0.61,0.23c0.04,0,0.06-0.02,0.1-0.02h1.02
			c0.37,0,0.63,0.18,0.78,0.41c0.44,0,0.87-0.02,1.29-0.07c0.37-0.05,0.81-0.03,1.03,0.18c0.04,0.01-0.42-0.06-0.37-0.05
			c0.03,0,0.34,0.05,0.37,0.05c0.14-0.08,0.36-0.01,0.56-0.01c0.07,0,0.11,0.03,0.17,0.03c0.01,0,0.01,0,0.02,0
			c0.16-0.14,0.35-0.24,0.62-0.24c0.15,0,0.29,0.03,0.4,0.08c0.81-0.11,1.63-0.2,2.45-0.18c0.07,0,0.12,0.03,0.18,0.04
			c0.16-0.14,0.36-0.25,0.64-0.25c0.17,0,0.31,0.03,0.43,0.09c0.23-0.06,0.47-0.12,0.7-0.18c0.15-0.13,0.34-0.22,0.6-0.22
			c0.05,0,0.08,0.02,0.13,0.03c3.26-0.87,7.54-2.15,9.78-4.71c0.7-0.8,1.48-1.27,2.28-1.49c1-1.27,2.2-2.35,3.26-3.71
			c1.32-1.69,2.67-3.69,3.36-5.74c0.19-0.55,0.13-0.6,0.45-1.06c0.03-0.72,0.45-1.89,0.65-2.67c0.11-0.43,0.23-0.86,0.34-1.3
			c-0.01-0.18,0.01-0.5,0.01-0.57c-0.06-0.87,0.16-1.68,0.57-2.38c-0.01-0.1,0-0.19,0.02-0.29c-0.03-0.88-0.07-1.76-0.07-2.64
			C97.89,68.22,97.93,67.89,97.99,67.58z M71.88,58.01c0.34,0.54,0.25,1.27,0.31,1.94c0.15,1.71-0.16,3.35-0.22,5.04
			c-0.05,1.47-1.11,2.26-2.24,2.39c-0.13,0.32-0.42,0.58-0.87,0.58c-0.01,0-0.01,0-0.02,0c-0.11,0.31-0.38,0.54-0.77,0.59
			c-0.79,0.67-1.68,1.22-2.64,1.58c-0.08,0.03-0.16,0.04-0.24,0.07c-1.13,0.45-0.26,0.2-2.03,1.26c-0.18,0.18-0.44,0.3-0.72,0.32
			c0.11-0.01-0.35,0.17-0.46,0.22c-0.51,0.21-0.61,0.35-0.89,0.25c-0.37-0.13-0.47-0.53-0.46-0.88c-0.06-0.16-0.1-0.33-0.07-0.53
			c0.28-1.99-0.3-4.1,0.13-6.07c-0.02-0.05-0.04-0.09-0.05-0.14c-0.23-0.89-0.14-1.65,0.17-2.3c-0.05-0.5,0.22-1.02,0.81-1.1
			c0.59-0.56,1.34-1.01,2.15-1.34c0.98-0.4,0.91-0.3,1.81-0.85c1-0.62,1.9-1.37,2.93-1.92c0.25-0.13,0.51-0.22,0.76-0.27
			c0.15-0.26,0.41-0.46,0.81-0.46c0.05,0,0.09,0.02,0.13,0.03c0.14-0.31,0.5-0.31,0.87-0.56c0.88-0.6,1.14,0.91,0.83,1.51
			c-0.03,0.09-0.08,0.17-0.13,0.25C71.83,57.74,71.87,57.87,71.88,58.01z M50.03,78.67c-0.17,0.12-0.34,0.19-0.55,0.25
			c-0.57,0.18-1.03-0.21-1.23-0.7c-0.03-0.06-0.04-0.13-0.06-0.2c-0.11-0.08-0.21-0.18-0.29-0.33c-1.06-1.85-1.22-3.98-1.55-6.05
			c-0.06-0.39,0.09-0.71,0.33-0.93c-0.34-2.31-0.09-4.75,0.21-7.01c0.02-0.15,0.07-0.29,0.13-0.43c0.01-0.06,0-0.12,0.02-0.19
			c0.6-1.81,1.19-3.5,1.96-5.12c-0.02-0.28,0.06-0.57,0.28-0.75c0.09-0.07,0.16-0.16,0.23-0.25c0.33-0.61,0.7-1.21,1.12-1.81
			c0.01-0.01,0.01-0.03,0.02-0.04c0.01-0.02,0.03-0.04,0.04-0.06c0.11-0.16,0.21-0.31,0.33-0.47c0.01-0.02,0.02-0.03,0.04-0.04
			c0.02-0.27,0.16-0.53,0.48-0.71c0.02-0.01,0.15-0.12,0.22-0.14c0.02-0.03,0.05-0.05,0.07-0.08c0.07-0.45,0.38-0.8,0.83-0.87
			c0,0,0,0,0.01-0.01c0.02-0.2,0.09-0.39,0.28-0.57c1.34-1.29,2.64-2.61,4.16-3.62c0.22-0.22,0.44-0.43,0.66-0.66
			c0.28-0.31,0.61-0.35,0.91-0.26c2.18-1.4,6.23-3.75,9.04-3.01c0.47-0.14,0.95-0.22,1.55-0.28c0.34-0.04,0.67,0.02,0.96,0.15
			c0.16-0.16,0.38-0.27,0.67-0.27c1,0,1.22,1.19,0.67,1.73c0.12,0.29,0.19,0.6,0.21,0.9c0.05,1.09,0.02,2.17,0,3.26
			c0,0.03-0.01,0.05-0.01,0.08c0,0.04,0.01,0.08,0.01,0.12c0,0.37-0.07,0.72-0.18,1.05c0.63,0.51,0.44,1.79-0.6,1.79
			c-0.18,0-0.33-0.05-0.46-0.12c-1.06,1.09-2.61,1.88-3.83,2.52c-2.92,1.55-5.92,2.86-8.75,4.57c0.51,4.08,0.12,8.1,0.06,12.2
			c0.01,0.03,0.03,0.05,0.04,0.09c0.08,0.39,0.05,0.72,0.04,1.11c-0.02,0.56-0.44,0.98-1,1c-0.03,0-0.05,0.01-0.07,0.01
			c-0.2,0.42-0.51,0.78-0.95,0.97c-1.32,0.57-2.89,1.1-4.08,1.91c-0.78,0.53-0.99,0.97-1.65,0.92
			C50.26,78.46,50.17,78.57,50.03,78.67z M58.19,78.85c0.02,0.07,0.05,0.13,0.05,0.2c0.07,1.55-0.21,3.08-0.11,4.65
			c0.07,1.17,0.19,2.58-0.71,3.49c-0.84,0.86-1.85,0.54-2.63-0.21c-0.56-0.54-1.11-1.14-1.64-1.75c-0.48-0.05-0.75-0.38-0.83-0.76
			c-0.31-0.1-0.51-0.33-0.59-0.61c-0.39-0.22-0.59-0.63-0.67-1.08c-1.01-0.08-1.36-1.68-0.21-1.94c0.48-0.11,0.96-0.24,1.45-0.4
			c0.07-0.24,0.23-0.46,0.45-0.62c0.83-0.59,1.94-0.82,2.65-1.58c0.27-0.29,0.59-0.34,0.89-0.26c0.04-0.05,0.09-0.09,0.13-0.14
			c0.12-0.14,0.24-0.23,0.38-0.29c0.15-0.29,0.42-0.52,0.84-0.52C58.71,77.03,58.25,77.99,58.19,78.85z M71.87,86.78
			c-0.03,0.1-0.08,0.19-0.13,0.29C71.9,87.22,72,87.43,72,87.71v2.34c0,0.07-0.03,0.13-0.04,0.19c0.2,0.64,0.16,1.36-0.11,1.97
			c0.13,0.57-0.17,1.26-0.93,1.26c-0.13,0-0.24-0.03-0.34-0.07c-0.27,0.1-0.56,0.01-0.9,0.01c-0.67,0-1.2-0.06-1.59-0.41
			c-1.53,0.08-3.07-0.16-4.52-0.68c-0.1,0.01-0.02,0.09-0.1,0.01c-0.56-0.53-1.85-0.45-2.24-1.1c-0.02-0.01-0.05-0.02-0.07-0.03
			c-0.33,0.07-0.68-0.01-0.95-0.24c-0.09-0.08-0.2-0.15-0.3-0.21c0,0-0.01,0-0.01,0c-0.36-0.01-0.65-0.21-0.82-0.49
			c-0.43-0.37-1.27-0.74-0.05-1.5c0.16-0.2,0.4-0.35,0.74-0.35c0.09,0,0.15,0.03,0.23,0.05c0.04-0.02,0.08-0.03,0.11-0.05
			c0.11-0.1,0.24-0.17,0.39-0.19c0.09-0.01,0.16-0.05,0.24-0.07c0.12-0.12,0.26-0.22,0.43-0.28c0.49-0.17,0.95-0.43,1.41-0.67
			c0.32-0.49,0.78-0.88,1.35-0.98c0.16-0.03,0.32-0.08,0.48-0.11c0,0,0,0,0,0c0.28-0.15,0.57-0.3,0.86-0.45
			c0.04-0.02,0.08-0.03,0.12-0.05c0.27-0.17,0.54-0.34,0.81-0.51c0.1-0.09,0.21-0.17,0.32-0.25c0.15-0.28,0.41-0.49,0.82-0.49
			c0.09,0,0.16,0.03,0.24,0.05c0.33-0.81,1.06-1.45,2.21-1.45c0.03,0,0.06,0.01,0.09,0.01c0.14-0.12,0.32-0.2,0.54-0.22
			c0.15-0.25,0.42-0.42,0.8-0.42c1.03,0,1.22,1.26,0.62,1.77C72.29,84.9,72.31,85.96,71.87,86.78z M71.85,77.87
			c0.28,0.59,0.01,1.47-0.85,1.47c-0.01,0-0.02-0.01-0.03-0.01c-0.74,0.86-1.71,1.4-2.78,1.8c-0.8,0.3-1.64,0.4-2.25,1.02
			c-0.36,0.37-0.75,0.57-1.15,0.67c-0.43,0.33-0.59,0.67-1.17,0.69c-0.04,0-0.12,0.48-0.22,0.12c-0.03,0.49-0.75,0.74-1.27,0.7
			c-0.16,0.18-0.49,0.08-0.72,0.31c-0.96,0.95-1.21-1.16-0.7-1.71c-0.01-0.18,0-0.37,0.04-0.58c0.03-0.17,0.13-0.3,0.24-0.41
			c-0.16-0.33-0.26-0.69-0.25-1.05c0.01-0.6,0.06-1.19,0.08-1.79c0.01-0.31-0.01-0.61-0.01-0.92c0,0,0,0,0-0.01
			c-0.01-0.06-0.01-0.08-0.01-0.1c-0.27-0.66-0.28-1.34-0.06-1.94c-0.12-0.57,0.18-1.24,0.93-1.24c0.02,0,0.03,0.01,0.05,0.01
			c0.02-0.02,0.04-0.03,0.06-0.05c0.24-0.16,0.53-0.25,0.82-0.3c0.33-0.49,0.82-0.87,1.41-1.08c0.13-0.05,0.7-0.28,0.69-0.26
			c0.29-0.14,0.58-0.27,0.87-0.43c0.35-0.19,0.69-0.4,1.02-0.63c0,0,0,0,0.01,0c0.01-0.01,0.01-0.01,0.02-0.02
			c0.12-0.12,0.25-0.23,0.37-0.36c0.33-0.34,0.74-0.55,1.18-0.65c0.31-0.23,0.67-0.37,1.06-0.44c0.32-0.2,0.63-0.32,1.06-0.38
			c0.03-0.1,0.07-0.2,0.13-0.29c0.12-0.23,0.32-0.41,0.6-0.49c0.5-0.14,0.85-0.29,0.95,0.24c0.12,0.59,0.19,1.67,0.16,2.18
			c0,0.06-0.03,0.1-0.04,0.15c0.11,0.28-0.06,0.7-0.12,1.05C71.65,74.77,72.43,76.36,71.85,77.87z M87.51,50.64
			c0.53,0,0.83,0.34,0.93,0.74c0.19,0.16,0.26,0.39,0.29,0.63c0.32,0.07,0.55,0.27,0.66,0.53c0.1,0.12,0.17,0.26,0.21,0.42
			c0.39,0.32,0.76,0.67,0.95,1.12c0.89,0.35,0.77,1.93-0.38,1.93c-0.03,0-0.04-0.01-0.07-0.01c-0.24,0.27-0.51,0.51-0.75,0.74
			c-0.27,0.25-0.57,0.3-0.85,0.24c-0.45,0.82-1.95,0.68-1.88-0.44c0.07-1.06,0.46-1.58,0.13-2.82c-0.06-0.23,0.02-0.44-0.11-0.9
			c0.01-0.18,0.07-0.36,0.17-0.51C86.32,51.74,86.55,50.64,87.51,50.64z M74.58,62.13c0-0.31-0.02-0.62-0.02-0.93
			c-0.05-0.3-0.07-0.6-0.02-0.9c-0.04-1.3-0.1-2.6-0.1-3.9c0-0.05,0.02-0.09,0.03-0.14c-0.01-0.03-0.02-0.06-0.03-0.09
			c-0.14-1.6-0.08-3.21,0-4.82c0.01-0.18,0.06-0.33,0.14-0.47c-0.17-0.85-0.27-1.72-0.28-2.58c-0.28-0.69-0.26-1.51,0.05-2.19
			c-0.11-0.22-0.14-0.49-0.09-0.74c-0.03-0.52,0.29-1.06,0.96-1.06c0.38,0,0.64,0.19,0.79,0.44c0.07,0,0.13,0.02,0.2,0.03
			c0.1-0.02,0.2-0.04,0.31-0.04c0.67,0,1.19,0.22,1.58,0.57c0.17-0.06,0.37-0.05,0.59,0.03c0.26,0.1,0.51,0.21,0.76,0.31
			c0.18,0.07,0.33,0.2,0.45,0.35c0.35,0.04,0.69,0.15,1.03,0.31c0.32,0.14,0.61,0.33,0.92,0.5c0.06,0.03,0.15,0.07,0.23,0.11
			c0.1,0.03,0.19,0.04,0.29,0.06c0.73,0.12,1.24,0.63,1.53,1.27c0.33,0.43,0.66,0.97,0.61,1.55c-0.2,2.64,0.49,5.96-0.44,8.56
			c-0.01,0.02-0.02,0.04-0.03,0.07c0.24,0.59-0.05,1.42-0.88,1.42c-0.03,0-0.05-0.01-0.08-0.02c-0.77,0.74-1.82,1.27-2.88,1.69
			c-0.16,0.25-0.41,0.45-0.79,0.47c-0.18,0.01-0.33,0.09-0.49,0.17c-0.01,0.01-0.02,0-0.03,0.01c-0.39,0.61-1.04,1.05-1.98,1.05
			c-0.05,0-0.1-0.02-0.15-0.02c-0.09,0.17-0.2,0.32-0.36,0.42c-0.03,0.02-0.07,0.02-0.1,0.03c-0.06,0.05-0.12,0.09-0.19,0.13
			c-0.08,0.42-0.38,0.79-0.93,0.79c-1.04,0-1.23-1.28-0.59-1.79v-0.44c0-0.04,0.01-0.08,0.02-0.11
			C74.6,62.19,74.58,62.17,74.58,62.13z M95.47,69.78c0,0.26-0.1,0.45-0.23,0.61c-0.07,1.62-0.21,3.28-0.62,4.85
			c-0.75,2.83-2.12,5.63-4.08,7.85c-0.17,1.05-1.12,2.04-2.07,2.55c-0.04,0.07-0.08,0.14-0.1,0.17c-0.34,0.48-0.81,0.78-1.26,1.14
			c-1.01,0.82-1.98,1.59-3.05,2.28c-1.57,1.23-3.24,2.27-5.22,2.51c-0.4,0.55-1.03,0.93-1.92,0.93c-0.38,0-0.7-0.09-0.99-0.21
			c-0.16,0.2-0.4,0.34-0.74,0.34c-1.06,0-1.23-1.34-0.55-1.82c-0.17-0.6-0.32-1.23-0.08-1.81c-0.12-0.29-0.03-0.66-0.03-1.04
			c0.01-6.32,0.08-12.64-0.1-18.96c0-0.18,0.02-0.35,0.06-0.52c-0.22-0.58,0.07-1.36,0.85-1.39c0.27-0.23,0.59-0.41,0.93-0.51
			c1.16-0.31,3.3-2.04,4.29-2.8c0.51-0.39,0.91-0.73,1.5-0.59c0.06-0.15,0.38,0,0.5-0.1c0.13-0.34,0.42-0.6,0.89-0.6
			c1.04,0,1.23,1.29,0.58,1.8c-0.04,0.1,0.35,0.33,0.28,0.41c0.16,0.22-0.14,0.32-0.08,0.57c0.07,0.27,0.14,0.54,0.2,0.82
			c0.2,0.79,0.03,1.46-0.34,1.98c0.01,0.07,0.01,0.13,0.01,0.2c0.2,0.32,0.21,0.74,0.04,1.07c0.3,0.38,0.28,0.98-0.04,1.34
			c0.11,0.24,0.12,0.52,0.05,0.77c0.07,0.19,0.07,0.4,0.03,0.6c0.05,0.72,0.11,1.44,0.14,2.16c0.82-0.36,1.65-0.78,2.54-0.85
			c0.04-0.38,0.07-0.77,0.11-1.15c-0.03-0.09-0.06-0.19-0.06-0.3v-9.4c-0.04-0.29-0.04-0.56,0-0.81v-0.49
			c0-0.09,0.03-0.16,0.05-0.24c0.03-0.47,0.35-0.92,0.95-0.92c0.04,0,0.07,0.02,0.11,0.02c0.02-0.01,0.04-0.03,0.05-0.04
			c0.18-0.18,0.38-0.35,0.61-0.5c0.26-0.17,0.54-0.29,0.82-0.43c0.03-0.02,0.06-0.04,0.1-0.05c0.31-0.59,0.88-1.02,1.67-1.15
			c0.19-0.17,0.46-0.58,0.92-0.68c0.66-0.15,0.99,0.55,0.96,1.07c0.71,0.53,1.04,1.43,0.96,2.3c0,0.01,0,0.03,0,0.04
			c0,0.05-0.02,0.1-0.02,0.15c0.07,0.09,0.11,0.19,0.14,0.29c0.12,0.12,0.21,0.27,0.25,0.44c0.06,0.09,0.1,0.2,0.12,0.34
			c0.2,1.23,0.62,2.41,0.78,3.65C95.55,67.03,95.48,68.41,95.47,69.78z"/>
		<g class="st2">
			<g id="CIRCLE_9_">
				<linearGradient id="SVGID_2_" gradientUnits="userSpaceOnUse" x1="43.5169" y1="68.6923" x2="98.2713" y2="68.6923">
					<stop  offset="0" style="stop-color:#FBAC32"/>
					<stop  offset="1" style="stop-color:#D97C34"/>
				</linearGradient>
				<path class="st3" d="M43.89,68.69c0-14.91,12.09-27,27-27s27,12.09,27,27s-12.09,27-27,27S43.89,83.61,43.89,68.69L43.89,68.69z
					"/>
			</g>
			<g id="ARC_54_">
				<linearGradient id="SVGID_3_" gradientUnits="userSpaceOnUse" x1="49.5702" y1="84.7359" x2="55.9201" y2="84.7359">
					<stop  offset="0" style="stop-color:#FBAC32"/>
					<stop  offset="1" style="stop-color:#D97C34"/>
				</linearGradient>
				<path class="st4" d="M49.89,81.4c1.52,2.52,3.49,4.74,5.8,6.56"/>
			</g>
			<g id="ARC_53_">
				<linearGradient id="SVGID_4_" gradientUnits="userSpaceOnUse" x1="57.7135" y1="91.4147" x2="71.9419" y2="91.4147">
					<stop  offset="0" style="stop-color:#FBAC32"/>
					<stop  offset="1" style="stop-color:#D97C34"/>
				</linearGradient>
				<path class="st5" d="M57.91,89.53c4.19,2.61,9.08,3.9,14.01,3.69"/>
			</g>
			<g id="ARC_52_">
				<linearGradient id="SVGID_5_" gradientUnits="userSpaceOnUse" x1="74.3246" y1="75.2884" x2="95.8231" y2="75.2884">
					<stop  offset="0" style="stop-color:#FBAC32"/>
					<stop  offset="1" style="stop-color:#D97C34"/>
				</linearGradient>
				<path class="st6" d="M74.38,92.99C87.8,91.07,97.12,78.63,95.2,65.21c-0.39-2.73-1.24-5.38-2.51-7.82"/>
			</g>
			<g id="ARC_51_">
				<linearGradient id="SVGID_6_" gradientUnits="userSpaceOnUse" x1="86.5161" y1="52.5705" x2="91.7627" y2="52.5705">
					<stop  offset="0" style="stop-color:#FBAC32"/>
					<stop  offset="1" style="stop-color:#D97C34"/>
				</linearGradient>
				<path class="st7" d="M91.45,55.27c-1.3-1.99-2.88-3.78-4.69-5.31"/>
			</g>
			<g id="ARC_50_">
				<linearGradient id="SVGID_7_" gradientUnits="userSpaceOnUse" x1="74.3643" y1="46.2345" x2="84.5134" y2="46.2345">
					<stop  offset="0" style="stop-color:#FBAC32"/>
					<stop  offset="1" style="stop-color:#D97C34"/>
				</linearGradient>
				<path class="st8" d="M84.31,48.13c-2.99-1.95-6.36-3.22-9.89-3.73"/>
			</g>
			<g id="LWPOLYLINE_234_">
				<linearGradient id="SVGID_8_" gradientUnits="userSpaceOnUse" x1="86.5683" y1="56.5848" x2="91.6323" y2="56.5848">
					<stop  offset="0" style="stop-color:#FBAC32"/>
					<stop  offset="1" style="stop-color:#D97C34"/>
				</linearGradient>
				<line class="st9" x1="91.45" y1="55.27" x2="86.75" y2="57.9"/>
			</g>
			<g id="LWPOLYLINE_233_">
				<linearGradient id="SVGID_9_" gradientUnits="userSpaceOnUse" x1="74.2176" y1="62.0577" x2="84.4828" y2="62.0577">
					<stop  offset="0" style="stop-color:#FBAC32"/>
					<stop  offset="1" style="stop-color:#D97C34"/>
				</linearGradient>
				<line class="st10" x1="84.3" y1="59.28" x2="74.4" y2="64.84"/>
			</g>
			<g id="LWPOLYLINE_232_">
				<linearGradient id="SVGID_10_" gradientUnits="userSpaceOnUse" x1="60.688" y1="69.3727" x2="71.9486" y2="69.3727">
					<stop  offset="0" style="stop-color:#FBAC32"/>
					<stop  offset="1" style="stop-color:#D97C34"/>
				</linearGradient>
				<linearGradient id="SVGID_11_" gradientUnits="userSpaceOnUse" x1="60.5045" y1="69.3727" x2="72.1321" y2="69.3727">
					<stop  offset="0" style="stop-color:#FBAC32"/>
					<stop  offset="1" style="stop-color:#D97C34"/>
				</linearGradient>
				<line class="st11" x1="71.95" y1="66.21" x2="60.69" y2="72.53"/>
			</g>
			<g id="LWPOLYLINE_231_">
				<linearGradient id="SVGID_12_" gradientUnits="userSpaceOnUse" x1="86.5659" y1="59.0496" x2="92.8689" y2="59.0496">
					<stop  offset="0" style="stop-color:#FBAC32"/>
					<stop  offset="1" style="stop-color:#D97C34"/>
				</linearGradient>
				<line class="st12" x1="92.69" y1="57.38" x2="86.75" y2="60.72"/>
			</g>
			<g id="LWPOLYLINE_230_">
				<linearGradient id="SVGID_13_" gradientUnits="userSpaceOnUse" x1="74.2153" y1="64.8702" x2="84.4805" y2="64.8702">
					<stop  offset="0" style="stop-color:#FBAC32"/>
					<stop  offset="1" style="stop-color:#D97C34"/>
				</linearGradient>
				<line class="st13" x1="84.3" y1="62.09" x2="74.4" y2="67.65"/>
			</g>
			<g id="LWPOLYLINE_229_">
				<linearGradient id="SVGID_14_" gradientUnits="userSpaceOnUse" x1="60.5021" y1="72.1852" x2="72.1298" y2="72.1852">
					<stop  offset="0" style="stop-color:#FBAC32"/>
					<stop  offset="1" style="stop-color:#D97C34"/>
				</linearGradient>
				<line class="st14" x1="71.95" y1="69.02" x2="60.69" y2="75.35"/>
			</g>
			<g id="LWPOLYLINE_228_">
				<linearGradient id="SVGID_15_" gradientUnits="userSpaceOnUse" x1="49.7074" y1="79.0635" x2="58.4167" y2="79.0635">
					<stop  offset="0" style="stop-color:#FBAC32"/>
					<stop  offset="1" style="stop-color:#D97C34"/>
				</linearGradient>
				<line class="st15" x1="58.23" y1="76.72" x2="49.89" y2="81.4"/>
			</g>
			<g id="LWPOLYLINE_227_">
				<linearGradient id="SVGID_16_" gradientUnits="userSpaceOnUse" x1="71.5631" y1="73.9351" x2="72.3212" y2="73.9351">
					<stop  offset="0" style="stop-color:#FBAC32"/>
					<stop  offset="1" style="stop-color:#D97C34"/>
				</linearGradient>
				<line class="st16" x1="71.95" y1="69.02" x2="71.94" y2="78.85"/>
			</g>
			<g id="LWPOLYLINE_226_">
				<linearGradient id="SVGID_17_" gradientUnits="userSpaceOnUse" x1="71.5512" y1="87.4396" x2="72.3108" y2="87.4396">
					<stop  offset="0" style="stop-color:#FBAC32"/>
					<stop  offset="1" style="stop-color:#D97C34"/>
				</linearGradient>
				<line class="st17" x1="71.94" y1="81.66" x2="71.93" y2="93.22"/>
			</g>
			<g id="LWPOLYLINE_225_">
				<linearGradient id="SVGID_18_" gradientUnits="userSpaceOnUse" x1="74.0261" y1="54.6157" x2="74.7931" y2="54.6157">
					<stop  offset="0" style="stop-color:#FBAC32"/>
					<stop  offset="1" style="stop-color:#D97C34"/>
				</linearGradient>
				<line class="st18" x1="74.42" y1="44.4" x2="74.4" y2="64.84"/>
			</g>
			<g id="LWPOLYLINE_224_">
				<linearGradient id="SVGID_19_" gradientUnits="userSpaceOnUse" x1="74.0028" y1="80.3214" x2="74.7738" y2="80.3214">
					<stop  offset="0" style="stop-color:#FBAC32"/>
					<stop  offset="1" style="stop-color:#D97C34"/>
				</linearGradient>
				<line class="st19" x1="74.4" y1="67.65" x2="74.38" y2="92.99"/>
			</g>
			<g id="LWPOLYLINE_223_">
				<linearGradient id="SVGID_20_" gradientUnits="userSpaceOnUse" x1="83.9243" y1="53.705" x2="84.6835" y2="53.705">
					<stop  offset="0" style="stop-color:#FBAC32"/>
					<stop  offset="1" style="stop-color:#D97C34"/>
				</linearGradient>
				<line class="st20" x1="84.31" y1="48.13" x2="84.3" y2="59.28"/>
			</g>
			<g id="LWPOLYLINE_222_">
				<linearGradient id="SVGID_21_" gradientUnits="userSpaceOnUse" x1="83.9114" y1="68.4087" x2="84.6719" y2="68.4087">
					<stop  offset="0" style="stop-color:#FBAC32"/>
					<stop  offset="1" style="stop-color:#D97C34"/>
				</linearGradient>
				<line class="st21" x1="84.3" y1="62.09" x2="84.29" y2="74.73"/>
			</g>
			<g id="LWPOLYLINE_221_">
				<linearGradient id="SVGID_22_" gradientUnits="userSpaceOnUse" x1="86.3768" y1="53.9293" x2="87.1334" y2="53.9293">
					<stop  offset="0" style="stop-color:#FBAC32"/>
					<stop  offset="1" style="stop-color:#D97C34"/>
				</linearGradient>
				<line class="st22" x1="86.76" y1="49.96" x2="86.75" y2="57.9"/>
			</g>
			<g id="LWPOLYLINE_220_">
				<linearGradient id="SVGID_23_" gradientUnits="userSpaceOnUse" x1="86.364" y1="67.0321" x2="87.1245" y2="67.0321">
					<stop  offset="0" style="stop-color:#FBAC32"/>
					<stop  offset="1" style="stop-color:#D97C34"/>
				</linearGradient>
				<line class="st23" x1="86.75" y1="60.72" x2="86.74" y2="73.35"/>
			</g>
			<g id="LWPOLYLINE_219_">
				<linearGradient id="SVGID_24_" gradientUnits="userSpaceOnUse" x1="57.85" y1="81.6324" x2="58.6081" y2="81.6324">
					<stop  offset="0" style="stop-color:#FBAC32"/>
					<stop  offset="1" style="stop-color:#D97C34"/>
				</linearGradient>
				<line class="st24" x1="58.23" y1="76.72" x2="58.22" y2="86.54"/>
			</g>
			<g id="LWPOLYLINE_218_">
				<linearGradient id="SVGID_25_" gradientUnits="userSpaceOnUse" x1="60.313" y1="67.0563" x2="61.0721" y2="67.0563">
					<stop  offset="0" style="stop-color:#FBAC32"/>
					<stop  offset="1" style="stop-color:#D97C34"/>
				</linearGradient>
				<line class="st25" x1="60.7" y1="61.58" x2="60.69" y2="72.53"/>
			</g>
			<g id="LWPOLYLINE_217_">
				<linearGradient id="SVGID_26_" gradientUnits="userSpaceOnUse" x1="60.3025" y1="80.2558" x2="61.0607" y2="80.2558">
					<stop  offset="0" style="stop-color:#FBAC32"/>
					<stop  offset="1" style="stop-color:#D97C34"/>
				</linearGradient>
				<line class="st26" x1="60.69" y1="75.35" x2="60.68" y2="85.17"/>
			</g>
			<g id="LWPOLYLINE_216_">
				<linearGradient id="SVGID_27_" gradientUnits="userSpaceOnUse" x1="60.494" y1="82.0057" x2="72.1216" y2="82.0057">
					<stop  offset="0" style="stop-color:#FBAC32"/>
					<stop  offset="1" style="stop-color:#D97C34"/>
				</linearGradient>
				<line class="st27" x1="71.94" y1="78.85" x2="60.68" y2="85.17"/>
			</g>
			<g id="LWPOLYLINE_215_">
				<linearGradient id="SVGID_28_" gradientUnits="userSpaceOnUse" x1="55.5043" y1="87.2547" x2="58.4085" y2="87.2547">
					<stop  offset="0" style="stop-color:#FBAC32"/>
					<stop  offset="1" style="stop-color:#D97C34"/>
				</linearGradient>
				<line class="st28" x1="58.22" y1="86.54" x2="55.69" y2="87.97"/>
			</g>
			<g id="LWPOLYLINE_214_">
				<linearGradient id="SVGID_29_" gradientUnits="userSpaceOnUse" x1="84.1029" y1="74.0369" x2="86.9226" y2="74.0369">
					<stop  offset="0" style="stop-color:#FBAC32"/>
					<stop  offset="1" style="stop-color:#D97C34"/>
				</linearGradient>
				<line class="st29" x1="86.74" y1="73.35" x2="84.29" y2="74.73"/>
			</g>
			<g id="LWPOLYLINE_213_">
				<linearGradient id="SVGID_30_" gradientUnits="userSpaceOnUse" x1="57.7282" y1="85.5938" x2="72.1193" y2="85.5938">
					<stop  offset="0" style="stop-color:#FBAC32"/>
					<stop  offset="1" style="stop-color:#D97C34"/>
				</linearGradient>
				<line class="st30" x1="71.94" y1="81.66" x2="57.91" y2="89.53"/>
			</g>
			<linearGradient id="SVGID_31_" gradientUnits="userSpaceOnUse" x1="71.9486" y1="60.7356" x2="71.9577" y2="60.7356">
				<stop  offset="0" style="stop-color:#FBAC32"/>
				<stop  offset="1" style="stop-color:#D97C34"/>
			</linearGradient>
			<linearGradient id="SVGID_32_" gradientUnits="userSpaceOnUse" x1="71.5736" y1="60.7356" x2="72.3327" y2="60.7356">
				<stop  offset="0" style="stop-color:#FBAC32"/>
				<stop  offset="1" style="stop-color:#D97C34"/>
			</linearGradient>
			<line class="st31" x1="71.96" y1="55.26" x2="71.95" y2="66.21"/>
			<g>
				<g id="ARC_49_">
					<linearGradient id="SVGID_33_" gradientUnits="userSpaceOnUse" x1="45.9684" y1="61.5869" x2="71.9833" y2="61.5869">
						<stop  offset="0" style="stop-color:#FBAC32"/>
						<stop  offset="1" style="stop-color:#D97C34"/>
					</linearGradient>
					<path class="st33" d="M71.97,44.16c-13.55-0.59-25.01,9.91-25.6,23.45c-0.18,4.01,0.64,8,2.36,11.63"/>
				</g>
				<g id="LWPOLYLINE_212_">
					<linearGradient id="SVGID_34_" gradientUnits="userSpaceOnUse" x1="48.5442" y1="76.5781" x2="58.419" y2="76.5781">
						<stop  offset="0" style="stop-color:#FBAC32"/>
						<stop  offset="1" style="stop-color:#D97C34"/>
					</linearGradient>
					<line class="st34" x1="58.24" y1="73.91" x2="48.73" y2="79.25"/>
				</g>
				<linearGradient id="SVGID_35_" gradientUnits="userSpaceOnUse" x1="71.4744" y1="48.3056" x2="72.2298" y2="48.3056">
					<stop  offset="0" style="stop-color:#FBAC32"/>
					<stop  offset="1" style="stop-color:#D97C34"/>
				</linearGradient>
				<line class="st35" x1="71.85" y1="44.16" x2="71.85" y2="52.45"/>
				<g id="LWPOLYLINE_211_">
					<linearGradient id="SVGID_36_" gradientUnits="userSpaceOnUse" x1="57.8605" y1="67.0267" x2="58.6219" y2="67.0267">
						<stop  offset="0" style="stop-color:#FBAC32"/>
						<stop  offset="1" style="stop-color:#D97C34"/>
					</linearGradient>
					<line class="st36" x1="58.25" y1="60.14" x2="58.24" y2="73.91"/>
				</g>
				<g id="LWPOLYLINE_210_">
					<linearGradient id="SVGID_37_" gradientUnits="userSpaceOnUse" x1="58.0633" y1="56.295" x2="72.1436" y2="56.295">
						<stop  offset="0" style="stop-color:#FBAC32"/>
						<stop  offset="1" style="stop-color:#D97C34"/>
					</linearGradient>
					<line class="st37" x1="71.96" y1="52.45" x2="58.25" y2="60.14"/>
				</g>
			</g>
			<g id="LWPOLYLINE_209_">
				<linearGradient id="SVGID_38_" gradientUnits="userSpaceOnUse" x1="60.6971" y1="58.4192" x2="71.9577" y2="58.4192">
					<stop  offset="0" style="stop-color:#FBAC32"/>
					<stop  offset="1" style="stop-color:#D97C34"/>
				</linearGradient>
				<linearGradient id="SVGID_39_" gradientUnits="userSpaceOnUse" x1="60.5136" y1="58.4192" x2="72.1412" y2="58.4192">
					<stop  offset="0" style="stop-color:#FBAC32"/>
					<stop  offset="1" style="stop-color:#D97C34"/>
				</linearGradient>
				<line class="st38" x1="71.96" y1="55.26" x2="60.7" y2="61.58"/>
			</g>
		</g>
	</g>
</g>
</svg>
